<svg width="96" height="96" viewBox="0 0 96 96" fill="none" xmlns="http://www.w3.org/2000/svg">
<g clip-path="url(#clip0_2011_45)">
<rect width="96" height="96" rx="5" fill="white"/>
<g clip-path="url(#clip1_2011_45)">
<mask id="mask0_2011_45" style="mask-type:luminance" maskUnits="userSpaceOnUse" x="0" y="0" width="96" height="96">
<path d="M96 0H0V96H96V0Z" fill="white"/>
</mask>
<g mask="url(#mask0_2011_45)">
<path d="M96 0H0V96H96V0Z" fill="#0A5B83"/>
<path d="M5.63684 114.5C-9.55594 116.097 -24.7608 111.593 -36.6329 101.98C-48.5049 92.3658 -56.0716 78.4296 -57.6685 63.2368C-59.2653 48.0441 -54.7614 32.8392 -45.1476 20.9672C-35.5338 9.0951 -21.5976 1.52837 -6.40484 -0.0684551C8.78795 -1.66528 23.9928 2.8386 35.8649 12.4524C47.7369 22.0662 55.3036 36.0024 56.9005 51.1952C58.4973 66.3879 53.9934 81.5928 44.3796 93.4649C34.7658 105.337 20.8296 112.904 5.63684 114.5Z" fill="#F1F4DC"/>
<path d="M70.3971 -30.6751L119.763 28.1571L60.9309 77.5231L11.5649 18.6909L70.3971 -30.6751Z" fill="#F88C49"/>
<path d="M19.8721 34.6173L54.0867 17.1841L71.5199 51.3987L37.3053 68.8319L19.8721 34.6173Z" fill="#69D2E7"/>
</g>
<path d="M17.4489 54.22L17.7849 50.608H27.5009L27.8089 54.22H17.4489ZM22.5729 45.596L19.8289 51.924L20.0529 52.96L17.6169 58H12.2689L22.5729 37.168L32.9049 58H27.5289L25.1769 53.156L25.3449 51.952L22.5729 45.596ZM37.1147 51.112C37.5067 51.8213 37.9454 52.4373 38.4307 52.96C38.9347 53.4827 39.4761 53.884 40.0547 54.164C40.6521 54.444 41.2774 54.584 41.9307 54.584C42.6214 54.584 43.1907 54.416 43.6387 54.08C44.0867 53.7253 44.3107 53.2493 44.3107 52.652C44.3107 52.148 44.1801 51.7467 43.9187 51.448C43.6574 51.1307 43.2374 50.832 42.6587 50.552C42.0801 50.272 41.3147 49.9547 40.3627 49.6C39.8961 49.432 39.3547 49.1987 38.7387 48.9C38.1414 48.6013 37.5721 48.2187 37.0307 47.752C36.4894 47.2667 36.0414 46.688 35.6867 46.016C35.3321 45.3253 35.1547 44.4947 35.1547 43.524C35.1547 42.3667 35.4534 41.368 36.0507 40.528C36.6667 39.688 37.4881 39.0533 38.5147 38.624C39.5601 38.176 40.7174 37.952 41.9867 37.952C43.2934 37.952 44.4227 38.1667 45.3747 38.596C46.3454 39.0253 47.1481 39.5667 47.7827 40.22C48.4174 40.8733 48.9027 41.536 49.2387 42.208L45.6267 44.224C45.3467 43.7573 45.0201 43.356 44.6467 43.02C44.2921 42.6653 43.8907 42.3947 43.4427 42.208C43.0134 42.0027 42.5467 41.9 42.0427 41.9C41.3707 41.9 40.8574 42.0493 40.5027 42.348C40.1481 42.628 39.9707 42.9827 39.9707 43.412C39.9707 43.86 40.1387 44.252 40.4747 44.588C40.8294 44.924 41.3241 45.232 41.9587 45.512C42.6121 45.792 43.3961 46.0907 44.3107 46.408C45.0014 46.6693 45.6454 46.9773 46.2427 47.332C46.8401 47.668 47.3627 48.0787 47.8107 48.564C48.2774 49.0493 48.6414 49.6093 48.9027 50.244C49.1641 50.8787 49.2947 51.6067 49.2947 52.428C49.2947 53.4173 49.0894 54.304 48.6787 55.088C48.2867 55.8533 47.7454 56.4973 47.0547 57.02C46.3827 57.5427 45.6081 57.9347 44.7307 58.196C43.8721 58.476 42.9854 58.616 42.0707 58.616C40.8014 58.616 39.6161 58.392 38.5147 57.944C37.4321 57.4773 36.4894 56.852 35.6867 56.068C34.8841 55.284 34.2587 54.4253 33.8107 53.492L37.1147 51.112ZM52.4587 38.4H57.1907V58H52.4587V38.4ZM55.4267 42.292V38.4H59.2627C60.9241 38.4 62.3147 38.6613 63.4347 39.184C64.5734 39.688 65.4321 40.416 66.0107 41.368C66.5894 42.32 66.8787 43.468 66.8787 44.812C66.8787 46.1187 66.5894 47.2573 66.0107 48.228C65.4321 49.18 64.5734 49.9173 63.4347 50.44C62.3147 50.944 60.9241 51.196 59.2627 51.196H55.4267V47.304H59.2627C60.2147 47.304 60.9614 47.0893 61.5027 46.66C62.0441 46.2307 62.3147 45.6147 62.3147 44.812C62.3147 43.9907 62.0441 43.3653 61.5027 42.936C60.9614 42.5067 60.2147 42.292 59.2627 42.292H55.4267ZM73.04 58V54.108H82.924V58H73.04ZM73.04 42.292V38.4H82.924V42.292H73.04ZM73.04 49.6V45.792H82.364V49.6H73.04ZM69.904 38.4H74.44V58H69.904V38.4Z" fill="black"/>
</g>
</g>
<defs>
<clipPath id="clip0_2011_45">
<rect width="96" height="96" rx="5" fill="white"/>
</clipPath>
<clipPath id="clip1_2011_45">
<rect width="96" height="96" fill="white"/>
</clipPath>
</defs>
</svg>
